<?xml version="1.0" standalone="no"?>
<!DOCTYPE svg PUBLIC "-//W3C//DTD SVG 20010904//EN"
 "http://www.w3.org/TR/2001/REC-SVG-20010904/DTD/svg10.dtd">
<svg version="1.0" xmlns="http://www.w3.org/2000/svg"
 width="256.000000pt" height="256.000000pt" viewBox="0 0 256.000000 256.000000"
 preserveAspectRatio="xMidYMid meet">
<metadata>
Created by potrace 1.14, written by Peter Selinger 2001-2017
</metadata>
<g transform="translate(0.000000,256.000000) scale(0.100000,-0.100000)"
fill="#000000" stroke="none">
<path d="M1199 2547 c-104 -30 -214 -126 -277 -245 -18 -34 -37 -62 -41 -62
-4 0 -45 10 -91 21 -116 30 -242 24 -321 -14 -66 -32 -132 -99 -162 -165 -33
-76 -34 -260 -1 -347 3 -7 -15 -24 -43 -40 -26 -16 -79 -60 -118 -99 -148
-150 -183 -327 -99 -502 34 -69 145 -186 217 -229 28 -16 46 -33 43 -40 -33
-87 -32 -271 1 -347 74 -166 261 -235 483 -179 46 11 87 21 91 21 4 0 23 -28
41 -62 48 -91 137 -181 216 -220 57 -28 77 -33 142 -33 65 0 85 5 142 33 79
39 168 129 216 220 18 34 37 62 41 62 4 0 45 -10 91 -21 116 -30 242 -24 321
14 66 32 132 99 162 165 33 76 34 260 1 347 -3 7 14 24 42 40 84 49 179 153
221 241 36 74 38 85 38 174 0 88 -2 100 -36 170 -43 90 -118 175 -205 232 -36
24 -62 48 -60 54 33 86 32 271 -1 346 -74 166 -261 235 -483 179 -46 -11 -87
-21 -91 -21 -4 0 -23 28 -41 62 -98 185 -284 289 -439 245z m186 -120 c65 -32
131 -110 187 -223 l51 -102 46 20 c72 31 189 58 251 58 217 0 313 -181 229
-434 -26 -78 -33 -67 71 -126 81 -46 169 -134 205 -206 24 -49 29 -71 29 -134
0 -63 -5 -85 -29 -134 -36 -72 -124 -160 -205 -206 -104 -59 -97 -48 -71 -126
13 -38 25 -103 28 -145 19 -266 -203 -363 -518 -226 l-36 16 -51 -103 c-84
-170 -177 -248 -292 -248 -115 0 -208 78 -292 248 l-51 103 -36 -16 c-135 -59
-273 -77 -361 -48 -147 49 -197 213 -129 419 26 78 33 67 -71 126 -82 46 -172
137 -206 208 -40 81 -40 183 0 264 34 72 123 162 205 208 105 59 98 48 72 126
-84 253 12 434 229 434 63 0 179 -27 253 -59 l47 -20 13 32 c114 271 267 376
432 294z"/>
<path d="M1215 2228 c-34 -37 -98 -157 -107 -200 -2 -11 31 -40 107 -93 110
-77 194 -145 273 -219 50 -48 50 -46 21 97 -38 191 -99 344 -166 417 -48 54
-78 54 -128 -2z"/>
<path d="M581 1981 c-40 -40 -17 -159 61 -316 45 -89 136 -235 146 -234 4 0
34 32 67 69 33 38 107 113 165 166 58 54 106 101 108 105 4 9 -139 100 -234
147 -102 51 -165 73 -235 79 -48 5 -59 3 -78 -16z"/>
<path d="M1829 1986 c-25 -7 -71 -25 -101 -38 l-55 -26 18 -93 c10 -52 23
-148 30 -214 6 -66 14 -145 18 -175 l6 -55 64 95 c112 168 191 349 191 441 0
75 -57 96 -171 65z"/>
<path d="M1228 1613 c-24 -20 -85 -77 -135 -127 l-93 -91 0 -116 0 -117 116
-111 c148 -143 156 -148 188 -128 13 9 76 66 140 128 l116 111 0 117 0 116
-87 86 c-116 113 -180 169 -193 169 -5 0 -29 -17 -52 -37z"/>
<path d="M456 1481 c-78 -46 -132 -97 -156 -146 -20 -42 -21 -51 -11 -87 16
-51 86 -122 164 -167 32 -18 60 -31 62 -29 2 2 37 54 78 116 l74 112 -74 113
c-41 61 -77 113 -81 114 -4 2 -29 -10 -56 -26z"/>
<path d="M1969 1395 l-76 -115 74 -112 c41 -62 76 -114 78 -116 2 -2 30 11 62
29 78 45 148 116 164 167 10 36 9 45 -11 86 -24 51 -79 102 -156 147 -28 16
-53 29 -56 29 -2 0 -38 -52 -79 -115z"/>
<path d="M751 1080 c-153 -228 -227 -444 -171 -500 34 -34 135 -21 253 33 l54
25 -18 93 c-10 52 -23 146 -30 209 -6 63 -14 142 -18 175 l-6 60 -64 -95z"/>
<path d="M1686 1041 c-43 -49 -118 -124 -167 -167 -48 -44 -88 -82 -88 -86 -2
-12 163 -111 263 -158 205 -97 306 -94 306 9 0 53 -34 160 -82 256 -45 89
-136 235 -146 234 -4 0 -42 -40 -86 -88z"/>
<path d="M1030 865 c0 -33 41 -218 66 -298 51 -160 128 -277 184 -277 47 0
109 81 159 208 l20 50 -57 38 c-85 56 -208 150 -294 227 -52 45 -78 62 -78 52z"/>
</g>
</svg>
